<mxfile host="app.diagrams.net" modified="2023-10-04T06:38:22.252Z" agent="Mozilla/5.0 (Windows NT 10.0; Win64; x64) AppleWebKit/537.36 (KHTML, like Gecko) Chrome/117.0.0.0 Safari/537.36" etag="S6b8EEskFO3Ka7c-vcYS" version="22.0.1" type="device">
  <diagram name="Page-1" id="JPmhObKxC1NIZyuwuKx2">
    <mxGraphModel dx="1115" dy="589" grid="1" gridSize="10" guides="1" tooltips="1" connect="1" arrows="1" fold="1" page="1" pageScale="1" pageWidth="1100" pageHeight="850" math="0" shadow="0">
      <root>
        <mxCell id="0" />
        <mxCell id="1" parent="0" />
        <mxCell id="YqDOC6O9TJBLQJCUjZOZ-2" value="" style="verticalLabelPosition=bottom;verticalAlign=top;html=1;shape=mxgraph.basic.layered_rect;dx=10;outlineConnect=0;whiteSpace=wrap;" vertex="1" parent="1">
          <mxGeometry x="450" y="460" width="150" height="80" as="geometry" />
        </mxCell>
        <mxCell id="YqDOC6O9TJBLQJCUjZOZ-3" value="" style="verticalLabelPosition=bottom;verticalAlign=top;html=1;shape=mxgraph.basic.rect;fillColor2=none;strokeWidth=1;size=20;indent=5;" vertex="1" parent="1">
          <mxGeometry x="730" y="460" width="150" height="70" as="geometry" />
        </mxCell>
        <mxCell id="YqDOC6O9TJBLQJCUjZOZ-4" value="" style="shape=cube;whiteSpace=wrap;html=1;boundedLbl=1;backgroundOutline=1;darkOpacity=0.05;darkOpacity2=0.1;" vertex="1" parent="1">
          <mxGeometry x="160" y="445" width="160" height="80" as="geometry" />
        </mxCell>
        <mxCell id="YqDOC6O9TJBLQJCUjZOZ-5" value="" style="rounded=1;whiteSpace=wrap;html=1;" vertex="1" parent="1">
          <mxGeometry x="170" y="290" width="140" height="60" as="geometry" />
        </mxCell>
        <mxCell id="YqDOC6O9TJBLQJCUjZOZ-6" value="" style="endArrow=none;dashed=1;html=1;rounded=0;entryX=0;entryY=0;entryDx=70;entryDy=0;entryPerimeter=0;exitX=0.432;exitY=1.067;exitDx=0;exitDy=0;exitPerimeter=0;" edge="1" parent="1">
          <mxGeometry width="50" height="50" relative="1" as="geometry">
            <mxPoint x="239.98000000000002" y="350" as="sourcePoint" />
            <mxPoint x="239.5" y="440.98" as="targetPoint" />
          </mxGeometry>
        </mxCell>
        <mxCell id="YqDOC6O9TJBLQJCUjZOZ-7" value="" style="endArrow=classic;html=1;rounded=0;exitX=0;exitY=0;exitDx=160;exitDy=50;exitPerimeter=0;entryX=0;entryY=0;entryDx=0;entryDy=35;entryPerimeter=0;" edge="1" parent="1" source="YqDOC6O9TJBLQJCUjZOZ-4" target="YqDOC6O9TJBLQJCUjZOZ-2">
          <mxGeometry width="50" height="50" relative="1" as="geometry">
            <mxPoint x="350" y="500" as="sourcePoint" />
            <mxPoint x="400" y="450" as="targetPoint" />
          </mxGeometry>
        </mxCell>
        <mxCell id="YqDOC6O9TJBLQJCUjZOZ-8" value="" style="endArrow=classic;html=1;rounded=0;entryX=-0.002;entryY=0.557;entryDx=0;entryDy=0;entryPerimeter=0;" edge="1" parent="1" source="YqDOC6O9TJBLQJCUjZOZ-2" target="YqDOC6O9TJBLQJCUjZOZ-3">
          <mxGeometry width="50" height="50" relative="1" as="geometry">
            <mxPoint x="650" y="520" as="sourcePoint" />
            <mxPoint x="700" y="470" as="targetPoint" />
          </mxGeometry>
        </mxCell>
        <mxCell id="YqDOC6O9TJBLQJCUjZOZ-9" value="&lt;font style=&quot;font-size: 14px;&quot;&gt;image&amp;nbsp;resolution 128x128&lt;/font&gt;" style="text;html=1;strokeColor=none;fillColor=none;align=center;verticalAlign=middle;whiteSpace=wrap;rounded=0;" vertex="1" parent="1">
          <mxGeometry x="200" y="300" width="80" height="30" as="geometry" />
        </mxCell>
        <mxCell id="YqDOC6O9TJBLQJCUjZOZ-10" value="&lt;font style=&quot;font-size: 14px;&quot;&gt;Generate DDR images using GAN&lt;/font&gt;" style="text;html=1;strokeColor=none;fillColor=none;align=center;verticalAlign=middle;whiteSpace=wrap;rounded=0;" vertex="1" parent="1">
          <mxGeometry x="190" y="480" width="110" height="30" as="geometry" />
        </mxCell>
        <mxCell id="YqDOC6O9TJBLQJCUjZOZ-11" value="&lt;font style=&quot;font-size: 14px;&quot;&gt;Training the model&lt;/font&gt;" style="text;html=1;strokeColor=none;fillColor=none;align=center;verticalAlign=middle;whiteSpace=wrap;rounded=0;" vertex="1" parent="1">
          <mxGeometry x="480" y="480" width="80" height="30" as="geometry" />
        </mxCell>
        <mxCell id="YqDOC6O9TJBLQJCUjZOZ-12" value="&lt;font style=&quot;font-size: 14px;&quot;&gt;Output&lt;/font&gt;" style="text;html=1;strokeColor=none;fillColor=none;align=center;verticalAlign=middle;whiteSpace=wrap;rounded=0;" vertex="1" parent="1">
          <mxGeometry x="775" y="480" width="60" height="30" as="geometry" />
        </mxCell>
      </root>
    </mxGraphModel>
  </diagram>
</mxfile>
